<svg width="216" height="181" viewBox="0 0 216 181" fill="none" xmlns="http://www.w3.org/2000/svg">
<path fill-rule="evenodd" clip-rule="evenodd" d="M46.5592 62.1595C83.7427 50.7115 120.998 45.0303 158.355 47.791C164.027 48.2118 163.024 49.4043 160.618 54.4938C157.871 60.3213 154.253 64.594 150.82 69.1953C157.702 63.5478 164.441 57.5808 170.127 49.015C172.8 44.9875 171.688 44.1685 165.647 43.5678C115.042 38.5188 77.2627 46.6908 46.5592 62.1595Z" fill="#050A30"/>
<path fill-rule="evenodd" clip-rule="evenodd" d="M84.546 36.6018C75.1545 35.9538 66.5145 38.3275 58.7093 44.0583C67.149 40.798 75.7328 38.1723 84.546 36.6018ZM45.7538 59.2908C67.0725 48.349 90.3555 39.6595 120.848 39.2388C110.131 35.866 99.5872 34.9953 89.1495 35.6568C80.1608 32.176 57.9195 37.5783 53.1788 46.0405C50.7038 50.4573 48.2265 54.874 45.7538 59.2908Z" fill="#050A30"/>
<path fill-rule="evenodd" clip-rule="evenodd" d="M43.2 65.0598C83.1825 69.8298 108.774 51.697 150.192 69.9355C109.31 56.1228 76.9163 76.483 43.2 65.0598Z" fill="#050A30"/>
<path fill-rule="evenodd" clip-rule="evenodd" d="M60.8692 70.7748C81.3555 74.755 102.402 64.7808 124.306 68.4033C104.177 68.6665 78.4327 78.8005 60.8692 70.7748Z" fill="#050A30"/>
<path d="M62.064 106.832C62.5253 107.019 62.9753 107.111 63.414 107.111C64.9125 107.111 66.1073 106.674 66.996 105.797C67.8893 104.915 68.337 103.734 68.337 102.251C68.337 101.742 68.2043 101.205 67.941 100.64C67.6823 100.077 67.3335 99.5644 66.897 99.1009C66.465 98.6329 65.9295 98.2459 65.295 97.9399C64.665 97.6339 63.9495 97.4809 63.153 97.4809C62.361 97.4809 61.6095 97.6834 60.903 98.0839C60.1943 98.4866 59.6475 99.0446 59.265 99.7579C58.8803 100.473 58.689 101.301 58.689 102.242C58.689 103.178 59.031 104.091 59.715 104.978C60.4035 105.867 61.1865 106.485 62.064 106.832ZM59.121 106.499C58.599 105.954 58.1805 105.306 57.87 104.555C57.564 103.799 57.411 103.02 57.411 102.215C57.411 101.412 57.573 100.647 57.897 99.9199C58.221 99.1886 58.6485 98.5586 59.184 98.0299C59.724 97.4966 60.3563 97.0714 61.083 96.7519C61.8143 96.4346 62.5365 96.2749 63.252 96.2749C63.972 96.2749 64.6425 96.3694 65.268 96.5539C66.4965 96.9274 67.5225 97.6159 68.346 98.6239C69.174 99.6319 69.588 100.82 69.588 102.188C69.588 102.987 69.4395 103.752 69.147 104.483C68.859 105.216 68.454 105.864 67.932 106.427C67.41 106.992 66.7485 107.444 65.952 107.786C65.16 108.121 64.323 108.29 63.441 108.29C62.559 108.29 61.749 108.128 61.011 107.804C60.2775 107.48 59.6475 107.046 59.121 106.499Z" fill="#050A30"/>
<path d="M77.3541 107.228C78.4161 107.228 79.3633 106.992 80.1981 106.517C81.0373 106.038 81.7236 105.392 82.2591 104.582C82.3243 104.487 82.3716 104.456 82.4031 104.492C82.4323 104.528 82.4706 104.58 82.5201 104.645L82.7361 104.96C82.8013 105.081 82.8261 105.156 82.8081 105.185C82.5246 105.756 82.0543 106.314 81.3951 106.859C80.1711 107.885 78.8233 108.398 77.3541 108.398C76.5013 108.398 75.7003 108.231 74.9511 107.903C74.2063 107.568 73.5786 107.124 73.0701 106.571C72.5593 106.02 72.1566 105.372 71.8641 104.627C71.5761 103.884 71.4321 103.115 71.4321 102.323C71.4321 101.526 71.5873 100.764 71.9001 100.037C72.2173 99.3056 72.6403 98.6734 73.1691 98.1379C73.7023 97.6046 74.3323 97.1794 75.0591 96.8599C75.7836 96.5359 76.5171 96.3739 77.2551 96.3739C78.1371 96.3739 79.0236 96.5449 79.9191 96.8869L80.2431 97.0129C80.2903 97.0309 80.3556 97.0129 80.4411 96.9589C80.5243 96.9004 80.6121 96.8689 80.7021 96.8689C80.7966 96.8689 80.8731 96.9139 80.9271 97.0039C80.9451 97.0174 80.9496 97.0646 80.9451 97.1479C80.9383 97.2874 80.9946 97.5979 81.1161 98.0839L81.2961 98.8579C81.3366 99.0626 81.3591 99.1909 81.3591 99.2449C81.3591 99.2764 81.2983 99.3214 81.1791 99.3799C81.0643 99.4339 80.9946 99.4474 80.9721 99.4159C80.5873 98.7386 80.1013 98.2706 79.5141 98.0119C78.9246 97.7554 78.1911 97.6249 77.3091 97.6249C76.4316 97.6249 75.6396 97.8274 74.9331 98.2279C74.2243 98.6239 73.6753 99.1774 73.2861 99.8839C72.9013 100.593 72.7101 101.396 72.7101 102.296C72.7101 102.89 72.8451 103.488 73.1151 104.087C73.3896 104.688 73.7406 105.219 74.1681 105.68C74.6001 106.137 75.0973 106.508 75.6621 106.796C76.2313 107.084 76.7961 107.228 77.3541 107.228Z" fill="#050A30"/>
<path d="M91.0994 101.135C91.4414 101.135 91.7226 101.025 91.9454 100.802C91.9634 100.784 91.9859 100.746 92.0174 100.685C92.0466 100.62 92.1029 100.586 92.1884 100.586C92.2784 100.586 92.3234 100.62 92.3234 100.685V102.719C92.3234 102.78 92.2806 102.809 92.1974 102.809C92.1186 102.809 92.0714 102.8 92.0534 102.782C92.0354 102.759 92.0174 102.728 91.9994 102.692C91.9859 102.656 91.9499 102.609 91.8914 102.548C91.8306 102.489 91.7226 102.429 91.5674 102.368C91.4099 102.309 91.2546 102.278 91.0994 102.278H86.6624V106.886H91.3244C91.8576 106.886 92.1816 106.841 92.2964 106.751C92.4156 106.661 92.4989 106.584 92.5484 106.517C92.6024 106.445 92.6406 106.409 92.6654 106.409C92.6879 106.409 92.7329 106.422 92.8004 106.445C92.8724 106.463 92.9084 106.485 92.9084 106.508C92.9084 106.526 92.8746 106.616 92.8094 106.778L92.5844 107.345C92.4989 107.561 92.4426 107.727 92.4134 107.84C92.3819 107.948 92.3414 108.011 92.2874 108.029H84.8354C84.7746 108.029 84.7454 107.991 84.7454 107.912C84.7454 107.829 84.7544 107.777 84.7724 107.759C84.7949 107.741 84.8264 107.727 84.8624 107.714C84.9029 107.696 84.9524 107.658 85.0064 107.597C85.0649 107.538 85.1279 107.43 85.1954 107.273C85.2606 107.118 85.2944 106.958 85.2944 106.796V97.7419C85.2944 97.3999 85.1796 97.1164 84.9524 96.8869C84.9344 96.8689 84.8939 96.8486 84.8354 96.8239C84.7746 96.7946 84.7454 96.7339 84.7454 96.6439C84.7454 96.5539 84.7746 96.5089 84.8354 96.5089H92.2874C92.3346 96.5089 92.3729 96.5696 92.4044 96.6889C92.4404 96.8104 92.4989 96.9769 92.5844 97.1929L92.8094 97.7599C92.8746 97.9286 92.9084 98.0209 92.9084 98.0389C92.9084 98.0569 92.8724 98.0794 92.8004 98.1019C92.7329 98.1266 92.6879 98.1379 92.6654 98.1379C92.6474 98.1379 92.6249 98.1266 92.6024 98.1019C92.5844 98.0726 92.5574 98.0366 92.5214 97.9939C92.4899 97.9466 92.4156 97.8769 92.2964 97.7869C92.1816 97.6969 91.8576 97.6519 91.3244 97.6519H86.6624V101.135H91.0994Z" fill="#050A30"/>
<path d="M94.9859 106.949C94.9859 106.949 96.5271 103.5 99.6119 96.5989C99.6344 96.5404 99.7491 96.5089 99.9539 96.5089C100.163 96.5089 100.28 96.5404 100.305 96.5989L105.075 106.949C105.255 107.381 105.435 107.64 105.615 107.723C105.673 107.748 105.705 107.804 105.705 107.894C105.705 107.984 105.673 108.029 105.615 108.029H103.068C103.007 108.029 102.978 107.991 102.978 107.912C102.978 107.829 102.987 107.777 103.005 107.759C103.027 107.741 103.059 107.727 103.095 107.714C103.135 107.696 103.169 107.676 103.194 107.651C103.367 107.471 103.455 107.307 103.455 107.156C103.455 107.001 103.439 106.875 103.41 106.778L102.393 104.366H97.3169L96.3179 106.778C96.2864 106.875 96.2729 106.949 96.2729 107.003V107.084C96.2729 107.084 96.2729 107.088 96.2729 107.093C96.2729 107.286 96.3629 107.471 96.5429 107.651C96.5609 107.669 96.5991 107.694 96.6599 107.723C96.7184 107.748 96.7499 107.804 96.7499 107.894C96.7499 107.984 96.7184 108.029 96.6599 108.029H94.4459C94.3851 108.029 94.3559 107.991 94.3559 107.912C94.3559 107.829 94.3649 107.777 94.3829 107.759C94.4054 107.741 94.4369 107.723 94.4729 107.705C94.6281 107.64 94.7991 107.388 94.9859 106.949ZM97.8209 103.25C97.8074 103.263 97.8051 103.281 97.8119 103.304C97.8164 103.322 97.8254 103.331 97.8389 103.331H101.853C101.864 103.331 101.873 103.322 101.88 103.304C101.884 103.281 101.882 103.263 101.871 103.25L99.8459 98.8309H99.7919L97.8209 103.25Z" fill="#050A30"/>
<path d="M109.256 96.5089C109.297 96.5089 109.337 96.5314 109.373 96.5719L117.23 104.906H117.284V97.7419C117.284 97.4066 117.167 97.1209 116.933 96.8869C116.915 96.8689 116.875 96.8486 116.816 96.8239C116.755 96.7946 116.726 96.7339 116.726 96.6439C116.726 96.5539 116.755 96.5089 116.816 96.5089H119.12C119.179 96.5089 119.21 96.5516 119.21 96.6349C119.21 96.7204 119.197 96.7699 119.174 96.7879C119.156 96.8014 119.125 96.8149 119.084 96.8329C119.048 96.8509 118.999 96.8914 118.94 96.9499C118.879 97.0106 118.814 97.1186 118.742 97.2739C118.675 97.4246 118.643 97.5799 118.643 97.7419V107.66C118.643 107.829 118.618 107.934 118.571 107.975C118.528 108.011 118.459 108.029 118.364 108.029C118.267 108.029 118.186 108.002 118.121 107.948L109.283 98.5609V106.796C109.283 107.156 109.387 107.442 109.598 107.651C109.616 107.669 109.654 107.694 109.715 107.723C109.774 107.748 109.805 107.804 109.805 107.894C109.805 107.984 109.774 108.029 109.715 108.029H107.456C107.389 108.029 107.357 107.991 107.357 107.912C107.357 107.829 107.366 107.777 107.384 107.759C107.407 107.741 107.438 107.727 107.474 107.714C107.515 107.696 107.548 107.676 107.573 107.651C107.807 107.417 107.924 107.133 107.924 106.796V97.7419C107.924 97.3954 107.812 97.1096 107.591 96.8869C107.573 96.8689 107.533 96.8486 107.474 96.8239C107.413 96.7946 107.384 96.7339 107.384 96.6439C107.384 96.5539 107.413 96.5089 107.474 96.5089H109.256Z" fill="#050A30"/>
<path d="M130.113 106.886C130.455 106.886 130.766 106.805 131.049 106.643C131.331 106.481 131.547 106.319 131.697 106.157C132.044 105.786 132.219 105.342 132.219 104.825C132.219 104.01 131.952 103.389 131.418 102.962C130.883 102.53 130.163 102.314 129.258 102.314H128.313C128.253 102.314 128.223 102.249 128.223 102.116V101.324C128.223 101.193 128.253 101.126 128.313 101.126H129.258C129.996 101.126 130.536 100.932 130.878 100.541C131.22 100.152 131.391 99.7309 131.391 99.2809C131.391 98.9996 131.34 98.7544 131.238 98.5429C131.135 98.3269 130.973 98.1379 130.752 97.9759C130.53 97.8094 130.302 97.7059 130.068 97.6699L129.915 97.6519H128.268C128.16 97.6519 128.064 97.6879 127.98 97.7599C127.902 97.8274 127.863 97.9106 127.863 98.0119V106.526C127.863 106.629 127.902 106.715 127.98 106.787C128.064 106.854 128.16 106.886 128.268 106.886H130.113ZM129.852 108.029H126.045C125.985 108.029 125.955 107.991 125.955 107.912C125.955 107.829 125.964 107.777 125.982 107.759C126.005 107.741 126.036 107.727 126.072 107.714C126.108 107.696 126.156 107.658 126.216 107.597C126.275 107.538 126.338 107.43 126.405 107.273C126.471 107.118 126.504 106.958 126.504 106.796V97.7419C126.504 97.3999 126.39 97.1164 126.162 96.8869C126.144 96.8689 126.104 96.8486 126.045 96.8239C125.985 96.7946 125.955 96.7339 125.955 96.6439C125.955 96.5539 125.985 96.5089 126.045 96.5089H129.816C130.212 96.5089 130.593 96.5876 130.959 96.7429C131.324 96.9004 131.634 97.1029 131.886 97.3549C132.444 97.9129 132.723 98.5136 132.723 99.1549C132.723 99.6409 132.6 100.059 132.354 100.406C132.114 100.748 131.715 101.126 131.157 101.54V101.684C132.795 102.357 133.614 103.398 133.614 104.807C133.614 105.558 133.277 106.272 132.606 106.949C132.294 107.268 131.895 107.529 131.409 107.732C130.928 107.93 130.41 108.029 129.852 108.029Z" fill="#050A30"/>
<path d="M135.618 106.949C135.618 106.949 137.159 103.5 140.244 96.5989C140.266 96.5404 140.381 96.5089 140.586 96.5089C140.795 96.5089 140.912 96.5404 140.937 96.5989L145.707 106.949C145.887 107.381 146.067 107.64 146.247 107.723C146.305 107.748 146.337 107.804 146.337 107.894C146.337 107.984 146.305 108.029 146.247 108.029H143.7C143.639 108.029 143.61 107.991 143.61 107.912C143.61 107.829 143.619 107.777 143.637 107.759C143.659 107.741 143.691 107.727 143.727 107.714C143.767 107.696 143.801 107.676 143.826 107.651C143.999 107.471 144.087 107.307 144.087 107.156C144.087 107.001 144.071 106.875 144.042 106.778L143.025 104.366H137.949L136.95 106.778C136.918 106.875 136.905 106.949 136.905 107.003V107.084C136.905 107.084 136.905 107.088 136.905 107.093C136.905 107.286 136.995 107.471 137.175 107.651C137.193 107.669 137.231 107.694 137.292 107.723C137.35 107.748 137.382 107.804 137.382 107.894C137.382 107.984 137.35 108.029 137.292 108.029H135.078C135.017 108.029 134.988 107.991 134.988 107.912C134.988 107.829 134.997 107.777 135.015 107.759C135.037 107.741 135.069 107.723 135.105 107.705C135.26 107.64 135.431 107.388 135.618 106.949ZM138.453 103.25C138.439 103.263 138.437 103.281 138.444 103.304C138.448 103.322 138.457 103.331 138.471 103.331H142.485C142.496 103.331 142.505 103.322 142.512 103.304C142.516 103.281 142.514 103.263 142.503 103.25L140.478 98.8309H140.424L138.453 103.25Z" fill="#050A30"/>
<path d="M152.462 103.169L148.313 97.5889C148.18 97.4089 148.034 97.2514 147.872 97.1119C147.715 96.9746 147.629 96.9004 147.611 96.8869C147.598 96.8689 147.562 96.8486 147.503 96.8239C147.442 96.7946 147.413 96.7339 147.413 96.6439C147.413 96.5539 147.442 96.5089 147.503 96.5089H150.05C150.109 96.5089 150.14 96.5516 150.14 96.6349C150.14 96.7204 150.127 96.7699 150.104 96.7879C150.086 96.8014 150.055 96.8149 150.014 96.8329C149.839 96.9116 149.764 97.0286 149.789 97.1839C149.818 97.3346 149.924 97.5259 150.104 97.7599L153.2 101.909H153.263L156.44 97.7599C156.746 97.3819 156.892 97.1546 156.881 97.0759C156.868 96.9994 156.845 96.9454 156.809 96.9139C156.778 96.8779 156.733 96.8486 156.674 96.8239C156.613 96.7946 156.584 96.7339 156.584 96.6439C156.584 96.5539 156.613 96.5089 156.674 96.5089H158.888C158.947 96.5089 158.978 96.5516 158.978 96.6349C158.978 96.7204 158.965 96.7699 158.942 96.7879C158.924 96.8014 158.897 96.8149 158.861 96.8329C158.825 96.8509 158.798 96.8666 158.78 96.8779C158.767 96.8914 158.731 96.9184 158.672 96.9589L158.483 97.1119C158.296 97.2626 158.141 97.4224 158.015 97.5889L153.911 102.917V106.796C153.911 107.138 154.024 107.424 154.253 107.651C154.271 107.669 154.309 107.694 154.37 107.723C154.429 107.748 154.46 107.804 154.46 107.894C154.46 107.984 154.429 108.029 154.37 108.029H152.003C151.942 108.029 151.913 107.991 151.913 107.912C151.913 107.829 151.922 107.777 151.94 107.759C151.963 107.741 151.994 107.727 152.03 107.714C152.066 107.696 152.113 107.658 152.174 107.597C152.233 107.532 152.296 107.424 152.363 107.273C152.428 107.118 152.462 106.958 152.462 106.796V103.169Z" fill="#050A30"/>
<path d="M76.1684 120.117V122.205H75.5384V120.117L73.1174 116.157H73.8014L75.8714 119.55L77.9504 116.157H78.5894L76.1684 120.117Z" fill="#050A30"/>
<path d="M84.8167 120.585H81.4417L80.7217 122.205H80.0557L82.8187 116.157H83.4487L86.2117 122.205H85.5457L84.8167 120.585ZM84.5827 120.072L83.1337 116.823L81.6757 120.072H84.5827Z" fill="#050A30"/>
<path d="M91.2845 122.259C90.6837 122.259 90.1437 122.128 89.6645 121.863C89.183 121.593 88.805 121.224 88.5305 120.756C88.2605 120.288 88.1255 119.763 88.1255 119.181C88.1255 118.6 88.2605 118.074 88.5305 117.606C88.805 117.138 89.183 116.773 89.6645 116.508C90.1505 116.238 90.6927 116.103 91.2935 116.103C91.7435 116.103 92.1575 116.179 92.5355 116.328C92.918 116.478 93.242 116.697 93.5075 116.985L93.1025 117.39C92.6277 116.917 92.0315 116.679 91.3115 116.679C90.83 116.679 90.3957 116.791 90.0065 117.012C89.615 117.228 89.309 117.525 89.0885 117.903C88.8657 118.281 88.7555 118.708 88.7555 119.181C88.7555 119.655 88.8657 120.081 89.0885 120.459C89.309 120.837 89.615 121.138 90.0065 121.359C90.3957 121.575 90.83 121.683 91.3115 121.683C92.036 121.683 92.6345 121.444 93.1025 120.963L93.5075 121.368C93.242 121.656 92.918 121.878 92.5355 122.034C92.1507 122.184 91.7345 122.259 91.2845 122.259Z" fill="#050A30"/>
<path d="M101.37 116.157V122.205H100.74V119.415H96.9506V122.205H96.3116V116.157H96.9506V118.857H100.74V116.157H101.37Z" fill="#050A30"/>
<path d="M105.958 116.706H103.834V116.157H108.721V116.706H106.597V122.205H105.958V116.706Z" fill="#050A30"/>
<path d="M117.516 122.259C116.915 122.259 116.375 122.128 115.896 121.863C115.414 121.593 115.036 121.224 114.762 120.756C114.492 120.288 114.357 119.763 114.357 119.181C114.357 118.6 114.492 118.074 114.762 117.606C115.036 117.138 115.414 116.773 115.896 116.508C116.382 116.238 116.924 116.103 117.525 116.103C117.975 116.103 118.389 116.179 118.767 116.328C119.149 116.478 119.473 116.697 119.739 116.985L119.334 117.39C118.859 116.917 118.263 116.679 117.543 116.679C117.061 116.679 116.627 116.791 116.238 117.012C115.846 117.228 115.54 117.525 115.32 117.903C115.097 118.281 114.987 118.708 114.987 119.181C114.987 119.655 115.097 120.081 115.32 120.459C115.54 120.837 115.846 121.138 116.238 121.359C116.627 121.575 117.061 121.683 117.543 121.683C118.267 121.683 118.866 121.444 119.334 120.963L119.739 121.368C119.473 121.656 119.149 121.878 118.767 122.034C118.382 122.184 117.966 122.259 117.516 122.259Z" fill="#050A30"/>
<path d="M122.543 116.157H123.182V121.656H126.575V122.205H122.543V116.157Z" fill="#050A30"/>
<path d="M131.513 122.259C130.733 122.259 130.123 122.034 129.686 121.584C129.248 121.134 129.029 120.481 129.029 119.622V116.157H129.668V119.595C129.668 120.297 129.824 120.823 130.136 121.17C130.454 121.512 130.913 121.683 131.513 121.683C132.119 121.683 132.58 121.512 132.899 121.17C133.217 120.823 133.376 120.297 133.376 119.595V116.157H133.997V119.622C133.997 120.481 133.777 121.134 133.34 121.584C132.908 122.034 132.299 122.259 131.513 122.259Z" fill="#050A30"/>
<path d="M141.176 119.082C141.572 119.172 141.878 119.347 142.094 119.604C142.31 119.856 142.418 120.184 142.418 120.585C142.418 121.107 142.225 121.509 141.842 121.791C141.457 122.067 140.893 122.205 140.15 122.205H137.36V116.157H139.97C140.647 116.157 141.172 116.292 141.545 116.562C141.916 116.832 142.103 117.216 142.103 117.714C142.103 118.044 142.018 118.326 141.851 118.56C141.689 118.794 141.464 118.969 141.176 119.082ZM137.999 116.688V118.875H139.934C140.42 118.875 140.794 118.782 141.059 118.596C141.322 118.411 141.455 118.137 141.455 117.777C141.455 117.423 141.322 117.153 141.059 116.967C140.794 116.782 140.42 116.688 139.934 116.688H137.999ZM140.141 121.674C140.681 121.674 141.088 121.584 141.365 121.404C141.64 121.219 141.779 120.931 141.779 120.54C141.779 119.784 141.232 119.406 140.141 119.406H137.999V121.674H140.141Z" fill="#050A30"/>
</svg>
