<svg width="500" height="500" viewBox="0 0 500 500" fill="none" xmlns="http://www.w3.org/2000/svg">
<g clip-path="url(#clip0_242_2)">
<path d="M550 -50H-50V550H550V-50Z" fill="white"/>
<path d="M550 -50H-50V550H550V-50Z" fill="white"/>
<path d="M550 -50H-50V550H550V-50Z" fill="#CAE8FF"/>
<path fill-rule="evenodd" clip-rule="evenodd" d="M107.776 224.906C193.849 198.406 280.089 185.255 366.562 191.646C379.693 192.62 377.37 195.38 371.802 207.161C365.443 220.651 357.068 230.542 349.12 241.193C365.052 228.12 380.651 214.307 393.812 194.479C400 185.156 397.427 183.26 383.443 181.87C266.302 170.182 178.849 189.099 107.776 224.906Z" fill="#050A30"/>
<path fill-rule="evenodd" clip-rule="evenodd" d="M195.708 165.745C173.969 164.245 153.969 169.74 135.901 183.005C155.438 175.458 175.307 169.38 195.708 165.745ZM105.911 218.266C155.26 192.938 209.156 172.823 279.74 171.849C254.932 164.042 230.526 162.026 206.365 163.557C185.557 155.5 134.073 168.005 123.099 187.594C117.37 197.818 111.635 208.042 105.911 218.266Z" fill="#050A30"/>
<path fill-rule="evenodd" clip-rule="evenodd" d="M100 231.62C192.552 242.661 251.792 200.688 347.667 242.906C253.031 210.932 178.047 258.062 100 231.62Z" fill="#050A30"/>
<path fill-rule="evenodd" clip-rule="evenodd" d="M140.901 244.849C188.323 254.062 237.042 230.974 287.745 239.359C241.151 239.969 181.557 263.427 140.901 244.849Z" fill="#050A30"/>
<path d="M143.667 328.315C144.734 328.747 145.776 328.96 146.792 328.96C150.26 328.96 153.026 327.95 155.083 325.919C157.151 323.877 158.188 321.143 158.188 317.71C158.188 316.533 157.88 315.289 157.271 313.981C156.672 312.679 155.865 311.492 154.854 310.419C153.854 309.335 152.615 308.44 151.146 307.731C149.688 307.023 148.031 306.669 146.188 306.669C144.354 306.669 142.615 307.137 140.979 308.065C139.339 308.997 138.073 310.289 137.188 311.94C136.297 313.596 135.854 315.512 135.854 317.69C135.854 319.856 136.646 321.971 138.229 324.023C139.823 326.08 141.635 327.512 143.667 328.315ZM136.854 327.544C135.646 326.283 134.677 324.783 133.958 323.044C133.25 321.294 132.896 319.492 132.896 317.627C132.896 315.768 133.271 313.997 134.021 312.315C134.771 310.622 135.76 309.164 137 307.94C138.25 306.705 139.714 305.721 141.396 304.981C143.089 304.247 144.76 303.877 146.417 303.877C148.083 303.877 149.635 304.096 151.083 304.523C153.927 305.387 156.302 306.981 158.208 309.315C160.125 311.648 161.083 314.398 161.083 317.565C161.083 319.414 160.74 321.184 160.063 322.877C159.396 324.575 158.458 326.075 157.25 327.377C156.042 328.684 154.51 329.731 152.667 330.523C150.833 331.299 148.896 331.69 146.854 331.69C144.813 331.69 142.938 331.315 141.229 330.565C139.531 329.815 138.073 328.809 136.854 327.544Z" fill="#050A30"/>
<path d="M179.06 329.231C181.519 329.231 183.711 328.684 185.644 327.585C187.586 326.476 189.175 324.981 190.415 323.106C190.566 322.887 190.675 322.815 190.748 322.898C190.816 322.981 190.904 323.101 191.019 323.252L191.519 323.981C191.67 324.262 191.727 324.434 191.685 324.502C191.029 325.825 189.941 327.117 188.415 328.377C185.581 330.752 182.461 331.94 179.06 331.94C177.086 331.94 175.232 331.554 173.498 330.794C171.774 330.018 170.321 328.992 169.144 327.71C167.961 326.434 167.029 324.934 166.352 323.21C165.685 321.492 165.352 319.71 165.352 317.877C165.352 316.033 165.711 314.268 166.435 312.585C167.17 310.893 168.149 309.429 169.373 308.19C170.607 306.955 172.066 305.971 173.748 305.231C175.425 304.481 177.123 304.106 178.831 304.106C180.873 304.106 182.925 304.502 184.998 305.294L185.748 305.585C185.857 305.627 186.008 305.585 186.206 305.46C186.399 305.325 186.602 305.252 186.81 305.252C187.029 305.252 187.206 305.356 187.331 305.565C187.373 305.596 187.383 305.705 187.373 305.898C187.357 306.221 187.487 306.94 187.769 308.065L188.185 309.856C188.279 310.33 188.331 310.627 188.331 310.752C188.331 310.825 188.191 310.929 187.915 311.065C187.649 311.19 187.487 311.221 187.435 311.148C186.545 309.58 185.42 308.497 184.06 307.898C182.696 307.304 180.998 307.002 178.956 307.002C176.925 307.002 175.092 307.471 173.456 308.398C171.816 309.315 170.545 310.596 169.644 312.231C168.753 313.872 168.31 315.731 168.31 317.815C168.31 319.19 168.623 320.575 169.248 321.96C169.883 323.351 170.696 324.58 171.685 325.648C172.685 326.705 173.836 327.565 175.144 328.231C176.461 328.898 177.769 329.231 179.06 329.231Z" fill="#050A30"/>
<path d="M210.878 315.127C211.67 315.127 212.321 314.872 212.836 314.356C212.878 314.315 212.93 314.226 213.003 314.085C213.071 313.934 213.201 313.856 213.399 313.856C213.607 313.856 213.711 313.934 213.711 314.085V318.794C213.711 318.934 213.613 319.002 213.42 319.002C213.238 319.002 213.128 318.981 213.086 318.94C213.045 318.887 213.003 318.815 212.961 318.731C212.93 318.648 212.847 318.538 212.711 318.398C212.571 318.262 212.321 318.122 211.961 317.981C211.597 317.846 211.238 317.773 210.878 317.773H200.607V328.44H211.399C212.633 328.44 213.383 328.335 213.649 328.127C213.925 327.919 214.118 327.742 214.232 327.585C214.357 327.419 214.446 327.335 214.503 327.335C214.555 327.335 214.659 327.367 214.816 327.419C214.982 327.46 215.066 327.512 215.066 327.565C215.066 327.606 214.988 327.815 214.836 328.19L214.316 329.502C214.118 330.002 213.988 330.387 213.92 330.648C213.847 330.898 213.753 331.044 213.628 331.085H196.378C196.238 331.085 196.17 330.997 196.17 330.815C196.17 330.622 196.191 330.502 196.232 330.46C196.284 330.419 196.357 330.387 196.441 330.356C196.534 330.315 196.649 330.226 196.774 330.085C196.909 329.95 197.055 329.7 197.211 329.335C197.363 328.976 197.441 328.606 197.441 328.231V307.273C197.441 306.481 197.175 305.825 196.649 305.294C196.607 305.252 196.514 305.205 196.378 305.148C196.238 305.08 196.17 304.94 196.17 304.731C196.17 304.523 196.238 304.419 196.378 304.419H213.628C213.738 304.419 213.826 304.559 213.899 304.835C213.982 305.117 214.118 305.502 214.316 306.002L214.836 307.315C214.988 307.705 215.066 307.919 215.066 307.96C215.066 308.002 214.982 308.054 214.816 308.106C214.659 308.163 214.555 308.19 214.503 308.19C214.461 308.19 214.409 308.163 214.357 308.106C214.316 308.038 214.253 307.955 214.17 307.856C214.097 307.747 213.925 307.585 213.649 307.377C213.383 307.169 212.633 307.065 211.399 307.065H200.607V315.127H210.878Z" fill="#050A30"/>
<path d="M219.875 328.585C219.875 328.585 223.442 320.601 230.583 304.627C230.635 304.492 230.901 304.419 231.375 304.419C231.859 304.419 232.13 304.492 232.187 304.627L243.229 328.585C243.646 329.585 244.062 330.184 244.479 330.377C244.614 330.434 244.687 330.565 244.687 330.773C244.687 330.981 244.614 331.085 244.479 331.085H238.583C238.442 331.085 238.375 330.997 238.375 330.815C238.375 330.622 238.396 330.502 238.437 330.46C238.489 330.419 238.562 330.387 238.646 330.356C238.739 330.315 238.817 330.268 238.875 330.21C239.276 329.794 239.479 329.413 239.479 329.065C239.479 328.705 239.442 328.413 239.375 328.19L237.021 322.606H225.271L222.958 328.19C222.885 328.413 222.854 328.585 222.854 328.71V328.898C222.854 328.898 222.854 328.908 222.854 328.919C222.854 329.367 223.062 329.794 223.479 330.21C223.521 330.252 223.609 330.309 223.75 330.377C223.885 330.434 223.958 330.565 223.958 330.773C223.958 330.981 223.885 331.085 223.75 331.085H218.625C218.484 331.085 218.416 330.997 218.416 330.815C218.416 330.622 218.437 330.502 218.479 330.46C218.531 330.419 218.604 330.377 218.687 330.335C219.047 330.184 219.442 329.601 219.875 328.585ZM226.437 320.023C226.406 320.054 226.401 320.096 226.416 320.148C226.427 320.19 226.448 320.21 226.479 320.21H235.771C235.797 320.21 235.817 320.19 235.833 320.148C235.843 320.096 235.838 320.054 235.812 320.023L231.125 309.794H231L226.437 320.023Z" fill="#050A30"/>
<path d="M252.908 304.419C253.001 304.419 253.095 304.471 253.178 304.565L271.366 323.856H271.491V307.273C271.491 306.497 271.22 305.835 270.678 305.294C270.637 305.252 270.543 305.205 270.408 305.148C270.267 305.08 270.199 304.94 270.199 304.731C270.199 304.523 270.267 304.419 270.408 304.419H275.741C275.876 304.419 275.949 304.518 275.949 304.71C275.949 304.908 275.918 305.023 275.866 305.065C275.824 305.096 275.751 305.127 275.658 305.169C275.574 305.21 275.46 305.304 275.324 305.44C275.184 305.58 275.033 305.83 274.866 306.19C274.71 306.538 274.637 306.898 274.637 307.273V330.231C274.637 330.622 274.579 330.867 274.47 330.96C274.371 331.044 274.21 331.085 273.991 331.085C273.767 331.085 273.579 331.023 273.428 330.898L252.97 309.169V328.231C252.97 329.065 253.21 329.726 253.699 330.21C253.741 330.252 253.829 330.309 253.97 330.377C254.106 330.434 254.178 330.565 254.178 330.773C254.178 330.981 254.106 331.085 253.97 331.085H248.741C248.585 331.085 248.512 330.997 248.512 330.815C248.512 330.622 248.533 330.502 248.574 330.46C248.626 330.419 248.699 330.387 248.783 330.356C248.876 330.315 248.954 330.268 249.012 330.21C249.553 329.669 249.824 329.012 249.824 328.231V307.273C249.824 306.471 249.564 305.809 249.053 305.294C249.012 305.252 248.918 305.205 248.783 305.148C248.642 305.08 248.574 304.94 248.574 304.731C248.574 304.523 248.642 304.419 248.783 304.419H252.908Z" fill="#050A30"/>
<path d="M301.189 328.44C301.98 328.44 302.699 328.252 303.355 327.877C304.006 327.502 304.506 327.127 304.855 326.752C305.657 325.893 306.064 324.867 306.064 323.669C306.064 321.783 305.444 320.346 304.209 319.356C302.97 318.356 301.303 317.856 299.209 317.856H297.022C296.881 317.856 296.814 317.705 296.814 317.398V315.565C296.814 315.262 296.881 315.106 297.022 315.106H299.209C300.918 315.106 302.168 314.658 302.959 313.752C303.751 312.851 304.147 311.877 304.147 310.835C304.147 310.184 304.027 309.617 303.793 309.127C303.553 308.627 303.178 308.19 302.668 307.815C302.152 307.429 301.626 307.19 301.084 307.106L300.73 307.065H296.918C296.668 307.065 296.444 307.148 296.251 307.315C296.069 307.471 295.98 307.663 295.98 307.898V327.606C295.98 327.846 296.069 328.044 296.251 328.21C296.444 328.367 296.668 328.44 296.918 328.44H301.189ZM300.584 331.085H291.772C291.631 331.085 291.564 330.997 291.564 330.815C291.564 330.622 291.584 330.502 291.626 330.46C291.678 330.419 291.751 330.387 291.834 330.356C291.918 330.315 292.027 330.226 292.168 330.085C292.303 329.95 292.449 329.7 292.605 329.335C292.756 328.976 292.834 328.606 292.834 328.231V307.273C292.834 306.481 292.569 305.825 292.043 305.294C292.001 305.252 291.907 305.205 291.772 305.148C291.631 305.08 291.564 304.94 291.564 304.731C291.564 304.523 291.631 304.419 291.772 304.419H300.501C301.418 304.419 302.298 304.601 303.147 304.96C303.991 305.325 304.709 305.794 305.293 306.377C306.584 307.669 307.23 309.059 307.23 310.544C307.23 311.669 306.944 312.637 306.376 313.44C305.819 314.231 304.897 315.106 303.605 316.065V316.398C307.397 317.955 309.293 320.367 309.293 323.627C309.293 325.367 308.512 327.018 306.959 328.585C306.235 329.325 305.314 329.929 304.189 330.398C303.074 330.856 301.876 331.085 300.584 331.085Z" fill="#050A30"/>
<path d="M313.93 328.585C313.93 328.585 317.498 320.601 324.638 304.627C324.691 304.492 324.956 304.419 325.43 304.419C325.915 304.419 326.185 304.492 326.243 304.627L337.284 328.585C337.701 329.585 338.118 330.184 338.534 330.377C338.67 330.434 338.743 330.565 338.743 330.773C338.743 330.981 338.67 331.085 338.534 331.085H332.638C332.498 331.085 332.43 330.997 332.43 330.815C332.43 330.622 332.451 330.502 332.493 330.46C332.545 330.419 332.618 330.387 332.701 330.356C332.795 330.315 332.873 330.268 332.93 330.21C333.331 329.794 333.534 329.413 333.534 329.065C333.534 328.705 333.498 328.413 333.43 328.19L331.076 322.606H319.326L317.013 328.19C316.941 328.413 316.909 328.585 316.909 328.71V328.898C316.909 328.898 316.909 328.908 316.909 328.919C316.909 329.367 317.118 329.794 317.534 330.21C317.576 330.252 317.665 330.309 317.805 330.377C317.941 330.434 318.013 330.565 318.013 330.773C318.013 330.981 317.941 331.085 317.805 331.085H312.68C312.54 331.085 312.472 330.997 312.472 330.815C312.472 330.622 312.493 330.502 312.534 330.46C312.586 330.419 312.659 330.377 312.743 330.335C313.102 330.184 313.498 329.601 313.93 328.585ZM320.493 320.023C320.461 320.054 320.456 320.096 320.472 320.148C320.482 320.19 320.503 320.21 320.534 320.21H329.826C329.852 320.21 329.873 320.19 329.888 320.148C329.899 320.096 329.894 320.054 329.868 320.023L325.18 309.794H325.055L320.493 320.023Z" fill="#050A30"/>
<path d="M352.921 319.835L343.317 306.919C343.01 306.502 342.671 306.137 342.296 305.815C341.932 305.497 341.734 305.325 341.692 305.294C341.661 305.252 341.578 305.205 341.442 305.148C341.302 305.08 341.234 304.94 341.234 304.731C341.234 304.523 341.302 304.419 341.442 304.419H347.338C347.473 304.419 347.546 304.518 347.546 304.71C347.546 304.908 347.515 305.023 347.463 305.065C347.421 305.096 347.348 305.127 347.255 305.169C346.848 305.351 346.677 305.622 346.734 305.981C346.802 306.33 347.046 306.773 347.463 307.315L354.63 316.919H354.776L362.13 307.315C362.838 306.44 363.177 305.913 363.151 305.731C363.119 305.554 363.067 305.429 362.984 305.356C362.911 305.273 362.807 305.205 362.671 305.148C362.531 305.08 362.463 304.94 362.463 304.731C362.463 304.523 362.531 304.419 362.671 304.419H367.796C367.932 304.419 368.005 304.518 368.005 304.71C368.005 304.908 367.973 305.023 367.921 305.065C367.88 305.096 367.817 305.127 367.734 305.169C367.651 305.21 367.588 305.247 367.546 305.273C367.515 305.304 367.432 305.367 367.296 305.46L366.859 305.815C366.427 306.163 366.067 306.533 365.776 306.919L356.276 319.252V328.231C356.276 329.023 356.536 329.684 357.067 330.21C357.109 330.252 357.197 330.309 357.338 330.377C357.473 330.434 357.546 330.565 357.546 330.773C357.546 330.981 357.473 331.085 357.338 331.085H351.859C351.718 331.085 351.651 330.997 351.651 330.815C351.651 330.622 351.671 330.502 351.713 330.46C351.765 330.419 351.838 330.387 351.921 330.356C352.005 330.315 352.114 330.226 352.255 330.085C352.39 329.934 352.536 329.684 352.692 329.335C352.843 328.976 352.921 328.606 352.921 328.231V319.835Z" fill="#050A30"/>
<path d="M176.316 359.066V363.9H174.857V359.066L169.253 349.9H170.837L175.628 357.754L180.441 349.9H181.92L176.316 359.066Z" fill="#050A30"/>
<path d="M196.335 360.15H188.523L186.856 363.9H185.314L191.71 349.9H193.168L199.564 363.9H198.023L196.335 360.15ZM195.793 358.962L192.439 351.441L189.064 358.962H195.793Z" fill="#050A30"/>
<path d="M211.307 364.025C209.916 364.025 208.666 363.723 207.557 363.108C206.442 362.483 205.567 361.629 204.932 360.545C204.307 359.462 203.994 358.249 203.994 356.9C203.994 355.556 204.307 354.337 204.932 353.254C205.567 352.17 206.442 351.327 207.557 350.712C208.682 350.087 209.937 349.775 211.328 349.775C212.369 349.775 213.328 349.952 214.203 350.295C215.088 350.644 215.838 351.15 216.453 351.816L215.515 352.754C214.416 351.66 213.036 351.108 211.369 351.108C210.255 351.108 209.249 351.368 208.348 351.879C207.442 352.379 206.734 353.066 206.223 353.941C205.708 354.816 205.453 355.806 205.453 356.9C205.453 357.999 205.708 358.983 206.223 359.858C206.734 360.733 207.442 361.431 208.348 361.941C209.249 362.441 210.255 362.691 211.369 362.691C213.046 362.691 214.432 362.139 215.515 361.025L216.453 361.962C215.838 362.629 215.088 363.144 214.203 363.504C213.312 363.853 212.348 364.025 211.307 364.025Z" fill="#050A30"/>
<path d="M234.652 349.9V363.9H233.193V357.441H224.423V363.9H222.943V349.9H224.423V356.15H233.193V349.9H234.652Z" fill="#050A30"/>
<path d="M245.273 351.17H240.356V349.9H251.668V351.17H246.752V363.9H245.273V351.17Z" fill="#050A30"/>
<path d="M272.027 364.025C270.636 364.025 269.386 363.723 268.277 363.108C267.162 362.483 266.287 361.629 265.652 360.545C265.027 359.462 264.714 358.249 264.714 356.9C264.714 355.556 265.027 354.337 265.652 353.254C266.287 352.17 267.162 351.327 268.277 350.712C269.402 350.087 270.657 349.775 272.048 349.775C273.089 349.775 274.048 349.952 274.923 350.295C275.808 350.644 276.558 351.15 277.173 351.816L276.235 352.754C275.136 351.66 273.756 351.108 272.089 351.108C270.975 351.108 269.97 351.368 269.068 351.879C268.162 352.379 267.454 353.066 266.943 353.941C266.428 354.816 266.173 355.806 266.173 356.9C266.173 357.999 266.428 358.983 266.943 359.858C267.454 360.733 268.162 361.431 269.068 361.941C269.97 362.441 270.975 362.691 272.089 362.691C273.766 362.691 275.152 362.139 276.235 361.025L277.173 361.962C276.558 362.629 275.808 363.144 274.923 363.504C274.032 363.853 273.068 364.025 272.027 364.025Z" fill="#050A30"/>
<path d="M283.663 349.9H285.143V362.629H292.997V363.9H283.663V349.9Z" fill="#050A30"/>
<path d="M304.429 364.025C302.622 364.025 301.211 363.504 300.2 362.462C299.185 361.42 298.679 359.91 298.679 357.92V349.9H300.158V357.858C300.158 359.483 300.518 360.702 301.242 361.504C301.976 362.295 303.039 362.691 304.429 362.691C305.83 362.691 306.898 362.295 307.638 361.504C308.372 360.702 308.742 359.483 308.742 357.858V349.9H310.179V357.92C310.179 359.91 309.669 361.42 308.658 362.462C307.658 363.504 306.247 364.025 304.429 364.025Z" fill="#050A30"/>
<path d="M326.797 356.67C327.714 356.879 328.422 357.285 328.922 357.879C329.422 358.462 329.672 359.223 329.672 360.15C329.672 361.358 329.224 362.29 328.339 362.941C327.448 363.582 326.141 363.9 324.422 363.9H317.964V349.9H324.005C325.573 349.9 326.786 350.212 327.651 350.837C328.51 351.462 328.943 352.353 328.943 353.504C328.943 354.269 328.745 354.92 328.359 355.462C327.984 356.004 327.464 356.41 326.797 356.67ZM319.443 351.129V356.191H323.922C325.047 356.191 325.911 355.978 326.526 355.545C327.135 355.118 327.443 354.483 327.443 353.65C327.443 352.832 327.135 352.207 326.526 351.775C325.911 351.348 325.047 351.129 323.922 351.129H319.443ZM324.401 362.67C325.651 362.67 326.594 362.462 327.234 362.045C327.87 361.618 328.193 360.952 328.193 360.045C328.193 358.295 326.927 357.42 324.401 357.42H319.443V362.67H324.401Z" fill="#050A30"/>
</g>
<defs>
<clipPath id="clip0_242_2">
<rect width="500" height="500" fill="white"/>
</clipPath>
</defs>
</svg>
